HIERARCHY
ROOT root
{
	OFFSET	0	13.1	24.9
	CHANNELS 6  Xposition Yposition Zposition Xrotation Yrotation Zrotation
	JOINT spine_1
	{
		OFFSET	0	9.99999	0
		CHANNELS 3  Xrotation Yrotation Zrotation
		JOINT spine_2
		{
			OFFSET	0	112	-10
			CHANNELS 3  Xrotation Yrotation Zrotation
			JOINT spine_3
			{
				OFFSET	0	206.5	19.3
				CHANNELS 3  Xrotation Yrotation Zrotation
				JOINT spine_4
				{
					OFFSET	0	110.4	14.6
					CHANNELS 3  Xrotation Yrotation Zrotation
					JOINT neck_1
					{
						OFFSET	0	71.8	-50.3
						CHANNELS 3  Xrotation Yrotation Zrotation
						JOINT neck_2
						{
							OFFSET	0	86.2	-25.8
							CHANNELS 3  Xrotation Yrotation Zrotation
							JOINT head_ee
							{
								OFFSET	0	179.8	-8.7
								CHANNELS 3  Xrotation Yrotation Zrotation
								End Site
								{
									OFFSET	1	0	0
								}
							}
						}
					}
					JOINT left_clavicle
					{
						OFFSET	-43.2	22.4	-70.8
						CHANNELS 3  Xrotation Yrotation Zrotation
						JOINT left_shoulder
						{
							OFFSET	-93.9	-5.79999	48.7
							CHANNELS 3  Xrotation Yrotation Zrotation
							JOINT left_elbow
							{
								OFFSET	-291.4	-30.8	15.2
								CHANNELS 3  Xrotation Yrotation Zrotation
								JOINT left_lowarm_twist
								{
									OFFSET	-110.7	-3.89999	13.6
									CHANNELS 3  Xrotation Yrotation Zrotation
									JOINT left_hand
									{
										OFFSET	-110.7	-3.89999	13.6
										CHANNELS 3  Xrotation Yrotation Zrotation
										JOINT left_ee
										{
											OFFSET	-80.8	-5.10001	12.1
											CHANNELS 3  Xrotation Yrotation Zrotation
											End Site
											{
												OFFSET	1	0	0
											}
										}
									}
								}
							}
						}
					}
					JOINT right_clavicle
					{
						OFFSET	43.2	22.4	-70.8
						CHANNELS 3  Xrotation Yrotation Zrotation
						JOINT right_shoulder
						{
							OFFSET	93.9	-5.79999	48.7
							CHANNELS 3  Xrotation Yrotation Zrotation
							JOINT right_elbow
							{
								OFFSET	291.4	-30.8	15.2
								CHANNELS 3  Xrotation Yrotation Zrotation
								JOINT right_lowarm_twist
								{
									OFFSET	110.7	-3.89999	13.6
									CHANNELS 3  Xrotation Yrotation Zrotation
									JOINT right_hand
									{
										OFFSET	110.7	-3.89999	13.6
										CHANNELS 3  Xrotation Yrotation Zrotation
										JOINT right_ee
										{
											OFFSET	80.8	-5.10001	12.1
											CHANNELS 3  Xrotation Yrotation Zrotation
											End Site
											{
												OFFSET	1	0	0
											}
										}
									}
								}
							}
						}
					}
				}
			}
		}
	}
	JOINT left_hip
	{
		OFFSET	-82.8	-127.5	0.300001
		CHANNELS 3  Xrotation Yrotation Zrotation
		JOINT left_knee
		{
			OFFSET	-28.2	-396.7	2.2
			CHANNELS 3  Xrotation Yrotation Zrotation
			JOINT left_ankle
			{
				OFFSET	-11.7	-411.3	35.4
				CHANNELS 3  Xrotation Yrotation Zrotation
				JOINT left_toes
				{
					OFFSET	0	-60	-88.6
					CHANNELS 3  Xrotation Yrotation Zrotation
					JOINT left_foot_ee
					{
						OFFSET	-22.5	-16.5	-42.2
						CHANNELS 3  Xrotation Yrotation Zrotation
						End Site
						{
							OFFSET	1	0	0
						}
					}
				}
			}
		}
	}
	JOINT right_hip
	{
		OFFSET	82.8	-127.5	0.300001
		CHANNELS 3  Xrotation Yrotation Zrotation
		JOINT right_knee
		{
			OFFSET	28.2	-396.7	2.2
			CHANNELS 3  Xrotation Yrotation Zrotation
			JOINT right_ankle
			{
				OFFSET	11.7	-411.3	35.4
				CHANNELS 3  Xrotation Yrotation Zrotation
				JOINT right_toes
				{
					OFFSET	0	-60	-88.6
					CHANNELS 3  Xrotation Yrotation Zrotation
					JOINT right_foot_ee
					{
						OFFSET	22.5	-16.5	-42.2
						CHANNELS 3  Xrotation Yrotation Zrotation
						End Site
						{
							OFFSET	1	0	0
						}
					}
				}
			}
		}
	}
}
MOTION
Frames: 16
Frame Time: 0.02
2513.89 664.104 -1161.21 -13.4385 51.2454 17.4184 3.08064 -0.576333 -0.712482 3.08077 -0.529829 -0.74771 3.08769 -0.40574 -0.821681 3.08714 -0.530413 -0.747295 -5.80057 15.4897 -0.860803 -5.67341 29.2786 2.01259 -0.0 0.0 -0.0 0.920576 14.3634 3.18054 -23.5101 -17.8306 88.1834 0.430115 -12.0281 0.0453139 9.88738 0.242038 -1.23827 -1.3297 28.7533 4.02942 -0.0 0.0 -0.0 11.8297 20.7415 -23.4892 -90.0692 74.3447 18.6214 0.203132 5.74623 -0.0101946 -21.423 1.2251 -2.43402 -12.3611 -33.8499 67.8477 0.0 0.0 0.0 17.966 -35.9303 -16.1007 -0.201857 0.008259 0.029876 24.9221 15.1621 -3.3584 -37.6183 0.0 0.0 -0.0 0.0 -0.0 4.09592 34.5983 -10.6422 -19.1396 -0.304884 -2.90767 40.4377 -24.0948 5.18076 26.5471 -0.0 -0.0 0.0 0.0 0.0 
2494.62 663.259 -1162.94 -12.5043 50.1891 16.951 2.96782 -0.400471 -0.842198 2.96815 -0.34607 -0.865972 2.97332 -0.203843 -0.910008 2.97233 -0.344998 -0.8664 -5.37774 14.6653 -1.87037 -5.19968 28.4374 0.722051 -0.0 0.0 -0.0 1.5331 13.8304 4.13087 -22.9147 -16.9954 86.9734 0.393641 -11.0343 0.0380224 10.5048 0.250017 -1.31673 -1.09527 28.7038 5.27273 -0.0 0.0 -0.0 11.0935 20.6874 -21.816 -89.7375 75.3825 16.3508 0.200561 5.67398 -0.00993888 -21.9853 1.26915 -2.49102 -12.0347 -33.2997 64.2158 0.0 0.0 0.0 18.06 -36.4261 -15.4302 -3.21418 0.11893 0.478874 29.9761 20.3907 -4.00812 -35.5866 0.0 0.0 -0.0 0.0 -0.0 4.76973 35.3737 -10.6955 -21.9374 -0.267591 -3.3353 40.0014 -24.5222 5.15271 26.795 -0.0 -0.0 0.0 0.0 0.0 
2462.77 670.615 -1173.16 -11.2792 49.7357 15.9389 2.90795 -0.480701 -0.941148 2.90835 -0.419842 -0.969825 2.9154 -0.259126 -1.02454 2.91418 -0.417673 -0.970761 -5.80014 14.2717 0.261951 -5.70867 26.1987 2.91756 -0.0 0.0 -0.0 1.68456 7.41993 3.88069 -15.8221 -14.3427 81.8617 0.397621 -11.1431 0.0387879 12.5193 0.270164 -1.57324 -0.819984 28.6807 6.75317 -0.0 0.0 -0.0 10.8806 19.5448 -21.4162 -89.2725 76.6262 12.4688 0.197092 5.57646 -0.00959877 -22.4967 1.3097 -2.54248 -12.1179 -33.3899 65.2632 0.0 0.0 0.0 15.6912 -35.0723 -14.5978 -4.05826 0.145688 0.605651 35.0731 20.0166 -4.54842 -34.203 0.0 0.0 -0.0 0.0 -0.0 4.39368 35.2135 -10.4491 -24.3397 -0.218938 -3.70071 38.5239 -25.7437 5.0477 27.5115 -0.0 -0.0 0.0 0.0 0.0 
2435.73 673.5 -1180.46 -10.2919 50.1276 14.6249 2.8316 -0.304835 -0.831746 2.83195 -0.251293 -0.849456 2.83561 -0.110778 -0.878891 2.83462 -0.248187 -0.850369 -5.38694 13.4833 2.23089 -5.29132 23.2243 4.67463 -0.0 0.0 -0.0 1.7236 4.063 3.67278 -13.2444 -15.2917 78.9568 0.455508 -12.7158 0.0507546 13.4854 0.276624 -1.69647 -0.837328 27.1163 6.02658 -0.0 0.0 -0.0 10.5975 18.6933 -20.8338 -79.1292 77.2764 -0.714955 0.195055 5.51917 -0.0094019 -21.2943 1.2151 -2.42092 -10.6472 -30.4637 53.9926 0.0 0.0 0.0 15.7372 -34.8857 -12.6831 -7.38459 0.232862 1.10861 39.1035 26.0288 -5.11476 -32.4929 0.0 0.0 -0.0 0.0 -0.0 4.66058 35.9288 -10.4017 -28.3669 -0.103144 -4.30779 34.3984 -26.2636 4.63444 28.8633 -0.0 -0.0 0.0 0.0 0.0 
2413.13 678.16 -1185.26 -9.18815 50.0606 13.8341 2.74602 -0.209211 -0.744942 2.74632 -0.161386 -0.756744 2.7484 -0.0358424 -0.77293 2.7476 -0.157459 -0.757571 -4.51522 11.9282 2.27016 -4.40601 20.1829 4.29798 -0.0 0.0 -0.0 3.59487 -0.208135 6.91964 -13.2874 -15.9173 76.8965 0.378373 -10.6163 0.0351548 15.0141 0.282599 -1.89163 -1.00251 26.3387 4.79012 -0.0 0.0 -0.0 10.4233 18.8273 -20.4332 -73.6317 77.2217 -10.1375 0.215428 6.0915 -0.0114626 -21.2829 1.21421 -2.41976 -10.4995 -29.9932 53.3893 0.0 0.0 0.0 16.0563 -33.5776 -11.5582 -10.0871 0.282094 1.52034 39.9315 25.6468 -5.1828 -31.3462 0.0 0.0 -0.0 0.0 -0.0 5.32274 34.8925 -10.6459 -31.2305 0.00502915 -4.73389 33.5899 -26.4545 4.5518 29.5738 -0.0 -0.0 0.0 0.0 0.0 
2385.95 680.815 -1192.6 -7.44358 51.0478 11.6682 2.67128 -0.13498 -0.64399 2.6715 -0.0937283 -0.651274 2.67253 0.0145894 -0.657821 2.67193 -0.0894821 -0.65187 -5.22335 11.1563 4.21794 -5.13683 17.4088 6.24262 -0.0 0.0 -0.0 3.29849 -0.0938134 6.35239 -11.2887 -17.049 76.1957 0.42803 -11.9715 0.0448804 15.1408 0.28286 -1.90781 -1.04596 24.308 3.68797 -0.0 0.0 -0.0 9.96137 17.5651 -19.4764 -66.794 76.7762 -20.012 0.244377 6.90265 -0.0147384 -20.9045 1.18498 -2.38109 -9.33762 -27.0253 47.2666 0.0 0.0 0.0 16.1354 -30.0907 -8.52229 -12.8158 0.312048 1.93792 42.4121 26.7181 -5.45595 -27.6048 0.0 0.0 -0.0 0.0 -0.0 5.82823 34.5914 -10.975 -33.6139 0.111235 -5.08417 34.1972 -26.3288 4.61455 29.747 -0.0 -0.0 0.0 0.0 0.0 
2353.56 681.506 -1200.86 -6.34836 52.7666 10.2779 2.62164 -0.206579 -0.538009 2.62179 -0.171926 -0.550064 2.62342 -0.0786947 -0.570907 2.62301 -0.16787 -0.551315 -4.18963 10.1816 3.47324 -4.09899 16.0056 5.20129 -0.0 0.0 -0.0 3.7433 -1.86079 7.11425 -10.8443 -18.6576 75.4133 0.377546 -10.5936 0.0350027 14.6693 0.281706 -1.8476 -1.19908 22.4491 2.00572 -0.0 0.0 -0.0 9.34699 15.144 -18.2409 -61.4834 76.2426 -28.4313 0.230238 6.50681 -0.0130876 -19.8443 1.10445 -2.27175 -8.72406 -25.7951 43.6556 0.0 0.0 0.0 16.1584 -26.7895 -6.27643 -15.9578 0.32187 2.41984 42.4494 26.2836 -5.44298 -25.2639 0.0 0.0 -0.0 0.0 -0.0 6.9818 34.3831 -11.6288 -37.2874 0.303276 -5.61478 33.9558 -26.701 4.59947 30.1656 -0.0 -0.0 0.0 0.0 0.0 
2324.51 686.938 -1207.87 -5.28023 54.0045 8.98522 2.44399 -0.219879 -0.491444 2.44411 -0.188162 -0.504439 2.44576 -0.100606 -0.528906 2.44542 -0.182873 -0.50638 -4.9481 9.95569 4.34108 -4.86608 15.0523 6.12835 -0.0 0.0 -0.0 3.50303 -3.2453 6.55396 -9.6247 -20.5012 75.5629 0.41154 -11.5229 0.0415232 13.7152 0.277855 -1.72579 -1.49039 20.6116 -0.520133 -0.0 0.0 -0.0 8.16061 12.6999 -15.7586 -59.5344 77.225 -33.064 0.328261 9.23626 -0.0265158 -19.8233 1.10288 -2.26957 -8.07844 -24.0519 40.5245 0.0 0.0 0.0 16.1377 -23.9124 -4.89848 -18.2023 0.312702 2.76408 40.8288 25.7078 -5.27087 -23.8978 0.0 0.0 -0.0 0.0 -0.0 7.86073 34.2299 -12.1707 -40.0032 0.466967 -5.99873 32.9372 -26.4659 4.47983 30.3244 -0.0 -0.0 0.0 0.0 0.0 
2299.65 689.56 -1209.62 -3.85924 55.4413 7.5364 2.31462 -0.276144 -0.458072 2.3147 -0.246437 -0.474715 2.31676 -0.161906 -0.509776 2.31648 -0.240382 -0.477809 -6.83497 9.3787 2.93204 -6.8156 15.2989 4.81176 -0.0 0.0 -0.0 3.4147 -3.81343 6.3406 -8.75915 -21.891 74.7765 0.486493 -13.5498 0.0577949 12.1197 0.266886 -1.52231 -1.68262 17.3493 -3.18735 -0.0 0.0 -0.0 7.26839 10.6635 -13.9297 -58.3488 77.5101 -36.1816 0.314827 8.86442 -0.0244027 -19.4824 1.07743 -2.23409 -7.59304 -22.7155 38.1867 0.0 0.0 0.0 15.8858 -21.843 -3.83052 -20.029 0.295293 3.0438 41.4576 25.1493 -5.31077 -22.334 0.0 0.0 -0.0 0.0 -0.0 9.30927 33.5505 -12.5769 -41.8566 0.589089 -6.25621 31.0747 -26.4244 4.26798 30.7557 -0.0 -0.0 0.0 0.0 0.0 
2275.74 687.616 -1215.71 -3.58469 55.9114 7.58596 2.30925 -0.173172 -0.55582 2.30942 -0.137454 -0.565713 2.31077 -0.0389397 -0.580868 2.31032 -0.130187 -0.567429 -6.83903 9.62466 4.69942 -6.78734 14.4769 6.62079 -0.0 0.0 -0.0 3.79239 -4.8367 7.03029 -7.61369 -23.0822 71.7802 0.437327 -12.2238 0.0468288 11.4314 0.260405 -1.43464 -1.81118 17.3496 -3.96985 -0.0 0.0 -0.0 6.38265 8.44866 -12.1533 -60.3875 77.5731 -37.2288 0.360268 10.119 -0.0318966 -18.8215 1.0287 -2.16489 -6.54032 -20.2906 32.6392 0.0 0.0 0.0 16.01 -19.4278 -3.43138 -22.4718 0.258093 3.41676 42.4098 24.3308 -5.3706 -21.4634 0.0 0.0 -0.0 0.0 -0.0 9.93898 33.5648 -13.0545 -42.9717 0.666565 -6.4092 33.0757 -24.6715 4.44529 30.9924 -0.0 -0.0 0.0 0.0 0.0 
2254.88 691.494 -1220.64 -2.41996 56.7569 6.36183 2.45091 -0.0315706 -0.857212 2.45132 0.023038 -0.857484 2.4509 0.166931 -0.841395 2.44991 0.0319584 -0.857198 -7.66836 9.53215 4.49896 -7.63742 14.5767 6.49119 -0.0 0.0 -0.0 4.19684 -3.90945 7.89774 -6.10504 -24.3656 70.014 0.459466 -12.8226 0.0516294 10.1295 0.245267 -1.26902 -1.90464 15.8909 -5.24422 -0.0 0.0 -0.0 5.72244 6.88763 -10.8499 -56.613 77.0812 -43.1327 0.304825 8.58705 -0.0228853 -17.2279 0.914534 -1.99578 -5.54881 -18.549 27.0499 0.0 0.0 0.0 15.6086 -17.5665 -2.71502 -24.7066 0.210161 3.75633 42.1062 23.9257 -5.32988 -20.6678 0.0 0.0 -0.0 0.0 -0.0 11.0985 32.9465 -13.5547 -43.3479 0.693383 -6.46049 31.3679 -23.9858 4.23864 31.2534 -0.0 -0.0 0.0 0.0 0.0 
2243.84 695.463 -1222.52 -1.52112 58.2203 5.71531 2.29448 -0.00839328 -1.00839 2.29504 0.0557871 -1.00688 2.29397 0.227043 -0.98254 2.29263 0.0690284 -1.00606 -10.0569 9.29674 4.62178 -10.0696 14.3994 6.82538 -0.0 0.0 -0.0 4.49954 -3.10543 8.54499 -3.71579 -26.4193 67.6065 0.589795 -16.2868 0.0843966 6.88342 0.191174 -0.857962 -1.89276 12.1351 -6.98139 -0.0 0.0 -0.0 5.78703 6.0719 -11.017 -55.0705 77.3743 -45.8879 0.198796 5.62436 -0.00976511 -17.0439 0.901657 -1.97605 -4.75639 -15.5502 23.7642 0.0 0.0 0.0 15.8115 -16.359 -2.4578 -26.257 0.169138 3.99071 41.141 21.5557 -5.1723 -19.2782 0.0 0.0 -0.0 0.0 -0.0 12.8237 32.5234 -14.7634 -41.8594 0.589278 -6.25659 32.0731 -23.0565 4.29531 31.4783 -0.0 -0.0 0.0 0.0 0.0 
2234.35 700.805 -1215.08 -2.17343 60.3601 6.14429 2.24422 -0.240455 -1.08338 2.24485 -0.171034 -1.09648 2.24809 0.0197229 -1.10956 2.24641 -0.155749 -1.09876 -11.5658 8.58561 3.90194 -11.617 13.7272 6.11989 -0.0 0.0 -0.0 4.8215 -1.32203 9.26268 -0.273326 -28.8691 66.925 0.731219 -19.9116 0.128354 4.76876 0.143441 -0.592064 -1.97918 10.2836 -8.43015 -0.0 0.0 -0.0 5.79118 7.74894 -10.9533 -54.0298 76.5849 -47.8203 0.207512 5.86928 -0.0106379 -16.4644 0.861514 -1.91366 -3.64093 -12.0436 18.412 0.0 0.0 0.0 15.9591 -15.3141 -1.5947 -24.624 0.212169 3.74381 38.6736 20.1552 -4.90756 -18.2706 0.0 0.0 -0.0 0.0 -0.0 16.8636 32.7166 -14.8472 -40.6047 0.505683 -6.08271 32.1663 -21.7785 4.27738 31.8209 -0.0 -0.0 0.0 0.0 0.0 
2220.19 702.659 -1205.97 -2.63814 59.5534 7.36293 2.21339 -0.271591 -1.5871 2.21477 -0.170063 -1.60116 2.21943 0.108133 -1.60653 2.21585 -0.146912 -1.60345 -12.0964 8.03628 1.56529 -12.2017 14.2435 3.79441 -0.0 0.0 -0.0 5.48356 0.971646 10.6279 3.14941 -30.4176 66.9303 0.777792 -21.0714 0.144659 3.89374 0.120824 -0.482578 -2.22574 9.64608 -10.3449 -0.0 0.0 -0.0 5.43428 7.88602 -10.2078 -56.2362 75.0882 -46.2271 0.197987 5.60163 -0.00968601 -15.3283 0.784665 -1.79018 -3.04638 -11.1143 14.9746 0.0 0.0 0.0 16.8997 -12.4178 -1.89785 -26.7203 0.155649 4.06054 38.7608 19.8042 -4.90795 -17.2771 0.0 0.0 -0.0 0.0 -0.0 17.1637 32.4316 -13.9337 -39.8939 0.460032 -5.98343 33.0241 -20.2683 4.3393 32.3189 -0.0 -0.0 0.0 0.0 0.0 
2199.15 710.323 -1206.88 -2.43331 59.7466 7.48948 1.82392 -0.300414 -1.91631 1.82595 -0.177888 -1.93154 1.832 0.170395 -1.93221 1.82682 -0.136842 -1.93488 -11.5578 8.18441 2.05936 -11.6453 14.1624 4.24265 -0.0 0.0 -0.0 6.32072 1.96627 12.2634 4.30009 -31.8736 65.3145 0.852182 -22.8866 0.172504 2.24108 0.073553 -0.276771 -2.62174 7.98946 -13.7949 -0.0 0.0 -0.0 5.04797 7.46528 -9.43245 -63.7767 74.3064 -39.951 0.285433 8.04818 -0.0200801 -14.9135 0.757227 -1.74473 -2.51528 -11.8305 11.1263 0.0 0.0 0.0 16.9957 -8.92291 -2.11915 -27.4069 0.134621 4.16381 34.3778 18.8315 -4.45424 -16.8322 0.0 0.0 -0.0 0.0 -0.0 18.4659 32.4963 -14.1477 -39.335 0.425003 -5.90498 34.0893 -18.7877 4.42363 32.8083 -0.0 -0.0 0.0 0.0 0.0 
2183.46 715.394 -1206.61 -2.90057 61.005 7.70641 1.6736 -0.404346 -1.98674 1.67576 -0.277131 -2.00843 1.68568 0.0916235 -2.02539 1.68003 -0.229332 -2.01445 -12.6524 8.03212 1.38689 -12.7741 14.3893 3.69351 -0.0 0.0 -0.0 7.22311 3.40584 13.9968 6.26256 -30.9893 64.2265 0.886986 -23.7198 0.186273 1.79066 0.059641 -0.22092 -2.91486 7.07302 -16.2449 -0.0 0.0 -0.0 4.81471 7.13921 -8.97083 -63.0291 73.6971 -41.6288 0.331423 9.32369 -0.0270259 -14.416 0.724747 -1.68996 -2.05802 -11.408 8.39134 0.0 0.0 0.0 17.0466 -6.0561 -1.85945 -27.4292 0.133916 4.16717 31.5343 18.3146 -4.14512 -16.5849 0.0 0.0 -0.0 0.0 -0.0 20.043 32.2585 -14.8511 -37.91 0.339182 -5.70345 35.2734 -18.1378 4.53325 33.354 -0.0 -0.0 0.0 0.0 0.0 
